<svg width="30" height="30" viewBox="0 0 30 30" fill="none" xmlns="http://www.w3.org/2000/svg">
<g clip-path="url(#clip0_1_3983)">
<path d="M5.12228 14.3555L23.8173 6.52264C23.831 6.51687 23.8383 6.5161 23.8401 6.51595C23.8421 6.51577 23.8433 6.5159 23.8447 6.51622C23.8486 6.51708 23.8597 6.52113 23.8719 6.5334C23.8842 6.54566 23.8883 6.55677 23.8891 6.56064C23.8894 6.56208 23.8896 6.56327 23.8894 6.56527C23.8892 6.56699 23.8885 6.57431 23.8827 6.58807L16.0498 25.2831C16.0435 25.2981 16.0385 25.304 16.0375 25.3051C16.0364 25.3064 16.0357 25.3069 16.0347 25.3075C16.0317 25.3093 16.0204 25.3144 16.0018 25.3137C15.9832 25.313 15.9724 25.3071 15.9695 25.3051C15.9686 25.3045 15.968 25.3039 15.9669 25.3025C15.966 25.3013 15.9614 25.295 15.9563 25.2796L13.5479 18.0873C13.3536 17.5071 12.8983 17.0517 12.318 16.8574L5.12573 14.4491C5.1103 14.4439 5.10401 14.4393 5.10284 14.4384C5.10142 14.4374 5.10086 14.4367 5.1002 14.4358C5.09819 14.433 5.09232 14.4221 5.09164 14.4035C5.09095 14.3849 5.09601 14.3736 5.0978 14.3706C5.09839 14.3697 5.0989 14.369 5.10024 14.3678C5.10134 14.3669 5.10728 14.3618 5.12228 14.3555Z" stroke="#264B82" stroke-width="1.9"/>
</g>
<defs>
<clipPath id="clip0_1_3983">
<rect width="30" height="30" fill="white"/>
</clipPath>
</defs>
</svg>
