<svg width="150" height="150" viewBox="0 0 60 60" fill="none" xmlns="http://www.w3.org/2000/svg">
<circle cx="30" cy="30" r="30" fill="#0D9B68"/>
<path fill-rule="evenodd" clip-rule="evenodd" d="M19.7 15C18.2088 15 17 16.2088 17 17.7V42.0454C17 43.5366 18.2088 44.7454 19.7 44.7454H24.7864C25.173 44.7454 25.4864 44.432 25.4864 44.0454C25.4864 43.6588 25.173 43.3454 24.7864 43.3454H19.7C18.982 43.3454 18.4 42.7634 18.4 42.0454V17.7C18.4 16.982 18.982 16.4 19.7 16.4H38.8917C39.6097 16.4 40.1917 16.982 40.1917 17.7V29.2822C40.1917 29.6688 40.5051 29.9822 40.8917 29.9822C41.2783 29.9822 41.5917 29.6688 41.5917 29.2822V17.7C41.5917 16.2088 40.3829 15 38.8917 15H19.7ZM23.559 22.0327C23.1724 22.0327 22.859 22.3461 22.859 22.7327C22.859 23.1193 23.1724 23.4327 23.559 23.4327H35.0433C35.4299 23.4327 35.7433 23.1193 35.7433 22.7327C35.7433 22.3461 35.4299 22.0327 35.0433 22.0327H23.559ZM22.859 27.886C22.859 27.4994 23.1724 27.186 23.559 27.186H35.0433C35.4299 27.186 35.7433 27.4994 35.7433 27.886C35.7433 28.2726 35.4299 28.586 35.0433 28.586H23.559C23.1724 28.586 22.859 28.2726 22.859 27.886ZM24.1493 31.7512C23.7627 31.7512 23.4493 32.0646 23.4493 32.4512C23.4493 32.8378 23.7627 33.1512 24.1493 33.1512H26.0889C26.4755 33.1512 26.7889 32.8378 26.7889 32.4512C26.7889 32.0646 26.4755 31.7512 26.0889 31.7512H24.1493Z" fill="white"/>
<path d="M17.5 17.7C17.5 16.485 18.485 15.5 19.7 15.5V14.5C17.9327 14.5 16.5 15.9327 16.5 17.7H17.5ZM17.5 42.0454V17.7H16.5V42.0454H17.5ZM19.7 44.2454C18.485 44.2454 17.5 43.2605 17.5 42.0454H16.5C16.5 43.8127 17.9327 45.2454 19.7 45.2454V44.2454ZM24.7864 44.2454H19.7V45.2454H24.7864V44.2454ZM24.9864 44.0454C24.9864 44.1559 24.8968 44.2454 24.7864 44.2454V45.2454C25.4491 45.2454 25.9864 44.7082 25.9864 44.0454H24.9864ZM24.7864 43.8454C24.8968 43.8454 24.9864 43.935 24.9864 44.0454H25.9864C25.9864 43.3827 25.4491 42.8454 24.7864 42.8454V43.8454ZM19.7 43.8454H24.7864V42.8454H19.7V43.8454ZM17.9 42.0454C17.9 43.0395 18.7059 43.8454 19.7 43.8454V42.8454C19.2582 42.8454 18.9 42.4873 18.9 42.0454H17.9ZM17.9 17.7V42.0454H18.9V17.7H17.9ZM19.7 15.9C18.7059 15.9 17.9 16.7059 17.9 17.7H18.9C18.9 17.2582 19.2582 16.9 19.7 16.9V15.9ZM38.8917 15.9H19.7V16.9H38.8917V15.9ZM40.6917 17.7C40.6917 16.7059 39.8858 15.9 38.8917 15.9V16.9C39.3335 16.9 39.6917 17.2582 39.6917 17.7H40.6917ZM40.6917 29.2822V17.7H39.6917V29.2822H40.6917ZM40.8917 29.4822C40.7813 29.4822 40.6917 29.3926 40.6917 29.2822H39.6917C39.6917 29.9449 40.229 30.4822 40.8917 30.4822V29.4822ZM41.0917 29.2822C41.0917 29.3926 41.0022 29.4822 40.8917 29.4822V30.4822C41.5545 30.4822 42.0917 29.9449 42.0917 29.2822H41.0917ZM41.0917 17.7V29.2822H42.0917V17.7H41.0917ZM38.8917 15.5C40.1067 15.5 41.0917 16.485 41.0917 17.7H42.0917C42.0917 15.9327 40.659 14.5 38.8917 14.5V15.5ZM19.7 15.5H38.8917V14.5H19.7V15.5ZM23.359 22.7327C23.359 22.6223 23.4485 22.5327 23.559 22.5327V21.5327C22.8963 21.5327 22.359 22.07 22.359 22.7327H23.359ZM23.559 22.9327C23.4485 22.9327 23.359 22.8432 23.359 22.7327H22.359C22.359 23.3955 22.8963 23.9327 23.559 23.9327V22.9327ZM35.0433 22.9327H23.559V23.9327H35.0433V22.9327ZM35.2433 22.7327C35.2433 22.8432 35.1537 22.9327 35.0433 22.9327V23.9327C35.706 23.9327 36.2433 23.3955 36.2433 22.7327H35.2433ZM35.0433 22.5327C35.1537 22.5327 35.2433 22.6223 35.2433 22.7327H36.2433C36.2433 22.07 35.706 21.5327 35.0433 21.5327V22.5327ZM23.559 22.5327H35.0433V21.5327H23.559V22.5327ZM23.559 26.686C22.8963 26.686 22.359 27.2232 22.359 27.886H23.359C23.359 27.7755 23.4485 27.686 23.559 27.686V26.686ZM35.0433 26.686H23.559V27.686H35.0433V26.686ZM36.2433 27.886C36.2433 27.2232 35.706 26.686 35.0433 26.686V27.686C35.1537 27.686 35.2433 27.7755 35.2433 27.886H36.2433ZM35.0433 29.086C35.706 29.086 36.2433 28.5487 36.2433 27.886H35.2433C35.2433 27.9964 35.1537 28.086 35.0433 28.086V29.086ZM23.559 29.086H35.0433V28.086H23.559V29.086ZM22.359 27.886C22.359 28.5487 22.8963 29.086 23.559 29.086V28.086C23.4485 28.086 23.359 27.9964 23.359 27.886H22.359ZM23.9493 32.4512C23.9493 32.3407 24.0389 32.2512 24.1493 32.2512V31.2512C23.4866 31.2512 22.9493 31.7885 22.9493 32.4512H23.9493ZM24.1493 32.6512C24.0389 32.6512 23.9493 32.5616 23.9493 32.4512H22.9493C22.9493 33.1139 23.4866 33.6512 24.1493 33.6512V32.6512ZM26.0889 32.6512H24.1493V33.6512H26.0889V32.6512ZM26.2889 32.4512C26.2889 32.5616 26.1994 32.6512 26.0889 32.6512V33.6512C26.7516 33.6512 27.2889 33.1139 27.2889 32.4512H26.2889ZM26.0889 32.2512C26.1994 32.2512 26.2889 32.3407 26.2889 32.4512H27.2889C27.2889 31.7884 26.7516 31.2512 26.0889 31.2512V32.2512ZM24.1493 32.2512H26.0889V31.2512H24.1493V32.2512Z" fill="white"/>
<path d="M31 39.2L36.25 44L45 36" stroke="white" stroke-width="2.3" stroke-linecap="round"/>
</svg>
